<?xml version="1.0" encoding="utf-8"?>
<!-- Generator: Adobe Illustrator 16.0.0, SVG Export Plug-In . SVG Version: 6.00 Build 0)  -->
<!DOCTYPE svg PUBLIC "-//W3C//DTD SVG 1.1//EN" "http://www.w3.org/Graphics/SVG/1.1/DTD/svg11.dtd">
<svg version="1.1" id="Layer_1" xmlns="http://www.w3.org/2000/svg" xmlns:xlink="http://www.w3.org/1999/xlink" x="0px" y="0px"
	 width="595.28px" height="595.28px" viewBox="0 0 595.28 595.28" enable-background="new 0 0 595.28 595.28" xml:space="preserve">
<g>
	<path fill="#DB4528" d="M297.639,49.946c-137.144,0-248.719,111.575-248.719,248.72c0,137.146,111.576,248.723,248.719,248.723
		c137.146,0,248.723-111.576,248.723-248.723C546.361,161.521,434.784,49.946,297.639,49.946z M317.598,121.247
		c-0.459-1.439,0.346-2.982,1.78-3.441c1.437-0.449,2.986,0.34,3.444,1.784c3.303,10.415,1.242,21.399-5.666,30.14
		c-3.417,4.325-4.839,8.833-4.225,13.395c1.256,9.329,10.372,16.133,10.457,16.2c1.225,0.896,1.477,2.612,0.591,3.83
		c-0.543,0.728-1.375,1.116-2.216,1.116c-0.561,0-1.129-0.174-1.621-0.535c-0.447-0.334-11.078-8.272-12.639-19.88
		c-0.822-6.091,0.98-11.986,5.352-17.524C318.618,139.043,320.352,129.899,317.598,121.247z M305.883,121.247
		c-0.457-1.439,0.334-2.982,1.777-3.441c1.438-0.449,2.981,0.34,3.445,1.784c3.312,10.415,1.248,21.399-5.662,30.14
		c-3.417,4.325-4.846,8.833-4.231,13.395c1.26,9.329,10.37,16.133,10.466,16.2c1.218,0.896,1.479,2.612,0.582,3.83
		c-0.539,0.728-1.369,1.116-2.212,1.116c-0.567,0-1.134-0.174-1.618-0.535c-0.453-0.334-11.083-8.272-12.644-19.88
		c-0.819-6.091,0.982-11.986,5.36-17.524C306.901,139.043,308.629,129.899,305.883,121.247z M289.617,146.333
		c5.76-7.289,7.484-16.434,4.734-25.085c-0.457-1.439,0.335-2.982,1.786-3.441c1.436-0.449,2.977,0.34,3.432,1.784
		c3.316,10.415,1.246,21.399-5.651,30.14c-3.421,4.325-4.843,8.833-4.234,13.395c1.256,9.329,10.369,16.133,10.465,16.2
		c1.215,0.896,1.479,2.612,0.584,3.83c-0.539,0.728-1.371,1.116-2.21,1.116c-0.565,0-1.129-0.174-1.623-0.535
		c-0.448-0.334-11.076-8.272-12.642-19.88C283.436,157.766,285.238,151.871,289.617,146.333z M257.692,189.568
		c9.817,0,20.157,0,29.957,0v81.3c0,9.987,9.649,14.894,18.755,14.894c9.109,0,18.578-4.907,18.578-14.894v-81.3
		c9.981,0,20.496,0,30.305,0v81.823c0,26.986-23.65,42.581-48.883,42.581c-25.056,0-48.712-15.595-48.712-42.581V189.568z
		 M176.728,188.165c25.408,0,52.917,13.846,57.651,46.611c-10.686,0-20.153,0-30.839,0c-4.382-12.438-13.667-18.049-26.812-18.049
		c-18.393,0-30.482,13.844-30.482,34.165c0,18.052,11.914,33.822,30.482,33.997c13.322,0,24.011-6.66,27.336-19.802
		c10.51,0,20.147,0,30.837,0c-4.554,34.692-32.062,48.358-58.173,48.358c-31.186,0.179-62.725-20.845-62.893-62.553
		C114.003,209.195,145.542,188.165,176.728,188.165z M145.17,430.413c-17.424,0.097-35.051-11.65-35.147-34.954
		c0.096-23.305,17.724-35.048,35.147-35.048c14.191,0,29.566,7.733,32.212,26.04c-5.975,0-11.262,0-17.236,0
		c-2.439-6.955-7.637-10.083-14.976-10.083c-10.283,0-17.036,7.732-17.036,19.091c0,10.09,6.662,18.898,17.036,18.994
		c7.441,0,13.413-3.719,15.279-11.06c5.868,0,11.258,0,17.229,0C175.13,422.771,159.755,430.413,145.17,430.413z M186.893,395.553
		c0-47.386,70.299-47.386,70.299,0C257.192,443.047,186.893,443.047,186.893,395.553z M257.692,328.949
		c0-5.055,1.735-9.148,3.873-9.148h89.863c2.129,0,3.859,4.094,3.859,9.148c0,5.057-1.73,9.15-3.859,9.15h-89.863
		C259.427,338.1,257.692,334.006,257.692,328.949z M313.106,376.855H288.24v14.98h22.028c0,5.874,0,9.599,0,15.666H288.24v22.23
		c-5.877,0-11.85,0-17.819,0v-68.547c13.998,0,28.693,0,42.686,0C313.106,366.965,313.106,370.982,313.106,376.855z
		 M369.318,376.855h-24.877v14.98h22.035c0,5.874,0,9.599,0,15.666h-22.035v22.23c-5.867,0-11.841,0-17.818,0v-68.547
		c14.007,0,28.689,0,42.695,0C369.318,366.965,369.318,370.982,369.318,376.855z M426.502,429.732c-16.061,0-27.811,0-43.67,0
		c0-22.912,0-45.828,0-68.547c15.859,0,26.736,0,42.787,0c0,5.094,0,10.385,0,15.67c-10.178,0-15.276,0-25.357,0v9.695h23.305
		c0,5.189,0,10.379,0,15.568h-23.305c0,4.014,0,7.932,0,12.043c10.081,0,15.961,0,26.24,0
		C426.502,419.248,426.502,424.54,426.502,429.732z M416.801,280.855v31.365c-10.508,0-21.029,0-31.363,0c0-40.83,0-81.65,0-122.652
		c17.696,0,35.92,0,53.962,0c58.702,0.178,58.702,91.287,0,91.287H416.801z M441.587,429.732c0-22.912,0-45.828,0-68.547
		c15.861,0,26.737,0,42.784,0c0,5.094,0,10.385,0,15.67c-10.174,0-15.275,0-25.354,0v9.695h23.305c0,5.189,0,10.379,0,15.568
		h-23.305c0,4.014,0,7.932,0,12.043c10.078,0,15.963,0,26.236,0c0,5.086,0,10.378,0,15.57
		C469.195,429.732,457.448,429.732,441.587,429.732z"/>
	<path fill="#DB4528" d="M204.903,395.553c0,24.877,34.374,24.877,34.374,0C239.277,370.88,204.903,370.88,204.903,395.553z"/>
	<path fill="#DB4528" d="M439.223,217.606c-7.357-0.177-15.24,0-22.422,0c0,9.983,0,25.053,0,35.04h22.422
		C456.398,252.646,457.448,217.778,439.223,217.606z"/>
	<path fill="#FFFFFF" d="M355.287,328.949c0-5.055-1.73-9.148-3.859-9.148h-89.863c-2.138,0-3.873,4.094-3.873,9.148
		c0,5.057,1.735,9.15,3.873,9.15h89.863C353.557,338.1,355.287,334.006,355.287,328.949z"/>
	<path fill="#FFFFFF" d="M176.728,313.444c26.112,0,53.62-13.666,58.173-48.358c-10.69,0-20.327,0-30.837,0
		c-3.325,13.142-14.015,19.802-27.336,19.802c-18.569-0.175-30.482-15.945-30.482-33.997c0-20.32,12.089-34.165,30.482-34.165
		c13.146,0,22.431,5.611,26.812,18.049c10.686,0,20.153,0,30.839,0c-4.734-32.765-32.244-46.611-57.651-46.611
		c-31.186,0-62.725,21.03-62.893,62.726C114.003,292.599,145.542,313.623,176.728,313.444z"/>
	<path fill="#FFFFFF" d="M306.404,313.972c25.232,0,48.883-15.595,48.883-42.581v-81.823c-9.809,0-20.323,0-30.305,0v81.3
		c0,9.987-9.469,14.894-18.578,14.894c-9.106,0-18.755-4.907-18.755-14.894v-81.3c-9.8,0-20.14,0-29.957,0v81.823
		C257.692,298.377,281.348,313.972,306.404,313.972z"/>
	<path fill="#FFFFFF" d="M439.399,189.568c-18.042,0-36.266,0-53.962,0c0,41.002,0,81.823,0,122.652c10.334,0,20.855,0,31.363,0
		v-31.365h22.599C498.102,280.855,498.102,189.746,439.399,189.568z M439.223,252.646h-22.422c0-9.987,0-25.057,0-35.04
		c7.182,0,15.064-0.177,22.422,0C457.448,217.778,456.398,252.646,439.223,252.646z"/>
	<path fill="#FFFFFF" d="M145.17,414.453c-10.374-0.096-17.036-8.904-17.036-18.994c0-11.358,6.753-19.091,17.036-19.091
		c7.339,0,12.537,3.128,14.976,10.083c5.974,0,11.261,0,17.236,0c-2.646-18.307-18.021-26.04-32.212-26.04
		c-17.424,0-35.051,11.743-35.147,35.048c0.096,23.304,17.724,35.051,35.147,34.954c14.585,0,29.96-7.642,32.508-27.02
		c-5.97,0-11.361,0-17.229,0C158.583,410.734,152.611,414.453,145.17,414.453z"/>
	<path fill="#FFFFFF" d="M186.893,395.553c0,47.494,70.299,47.494,70.299,0C257.192,348.167,186.893,348.167,186.893,395.553z
		 M204.903,395.553c0-24.673,34.374-24.673,34.374,0C239.277,420.43,204.903,420.43,204.903,395.553z"/>
	<path fill="#FFFFFF" d="M270.42,429.732c5.97,0,11.942,0,17.819,0v-22.23h22.028c0-6.067,0-9.792,0-15.666H288.24v-14.98h24.867
		c0-5.873,0-9.891,0-15.67c-13.993,0-28.688,0-42.686,0V429.732z"/>
	<path fill="#FFFFFF" d="M326.623,429.732c5.978,0,11.951,0,17.818,0v-22.23h22.035c0-6.067,0-9.792,0-15.666h-22.035v-14.98h24.877
		c0-5.873,0-9.891,0-15.67c-14.006,0-28.688,0-42.695,0V429.732z"/>
	<path fill="#FFFFFF" d="M400.262,402.119h23.305c0-5.189,0-10.379,0-15.568h-23.305v-9.695c10.081,0,15.18,0,25.357,0
		c0-5.285,0-10.576,0-15.67c-16.051,0-26.928,0-42.787,0c0,22.719,0,45.635,0,68.547c15.859,0,27.609,0,43.67,0
		c0-5.192,0-10.484,0-15.57c-10.279,0-16.159,0-26.24,0C400.262,410.051,400.262,406.133,400.262,402.119z"/>
	<path fill="#FFFFFF" d="M459.018,414.162c0-4.111,0-8.029,0-12.043h23.305c0-5.189,0-10.379,0-15.568h-23.305v-9.695
		c10.078,0,15.18,0,25.354,0c0-5.285,0-10.576,0-15.67c-16.047,0-26.923,0-42.784,0c0,22.719,0,45.635,0,68.547
		c15.861,0,27.608,0,43.667,0c0-5.192,0-10.484,0-15.57C474.98,414.162,469.096,414.162,459.018,414.162z"/>
	<path fill="#FFFFFF" d="M296.899,183.736c0.494,0.36,1.058,0.535,1.623,0.535c0.839,0,1.671-0.388,2.21-1.116
		c0.895-1.218,0.631-2.935-0.584-3.83c-0.097-0.067-9.209-6.871-10.465-16.2c-0.609-4.562,0.813-9.07,4.234-13.395
		c6.897-8.741,8.968-19.726,5.651-30.14c-0.455-1.444-1.996-2.233-3.432-1.784c-1.451,0.459-2.242,2.002-1.786,3.441
		c2.75,8.652,1.025,17.796-4.734,25.085c-4.379,5.538-6.181,11.433-5.359,17.524C285.823,175.464,296.451,183.402,296.899,183.736z"
		/>
	<path fill="#FFFFFF" d="M295.786,163.856c1.561,11.608,12.191,19.545,12.644,19.88c0.484,0.36,1.051,0.535,1.618,0.535
		c0.843,0,1.673-0.388,2.212-1.116c0.897-1.218,0.636-2.935-0.582-3.83c-0.096-0.067-9.206-6.871-10.466-16.2
		c-0.614-4.562,0.814-9.07,4.231-13.395c6.91-8.741,8.974-19.726,5.662-30.14c-0.464-1.444-2.007-2.233-3.445-1.784
		c-1.443,0.459-2.234,2.002-1.777,3.441c2.746,8.652,1.019,17.796-4.737,25.085C296.768,151.871,294.966,157.766,295.786,163.856z"
		/>
	<path fill="#FFFFFF" d="M307.504,163.856c1.561,11.608,12.191,19.545,12.639,19.88c0.492,0.36,1.061,0.535,1.621,0.535
		c0.841,0,1.673-0.388,2.216-1.116c0.886-1.218,0.634-2.935-0.591-3.83c-0.085-0.067-9.201-6.871-10.457-16.2
		c-0.614-4.562,0.808-9.07,4.225-13.395c6.908-8.741,8.969-19.726,5.666-30.14c-0.458-1.444-2.008-2.233-3.444-1.784
		c-1.435,0.459-2.239,2.002-1.78,3.441c2.754,8.652,1.021,17.796-4.742,25.085C308.484,151.871,306.682,157.766,307.504,163.856z"/>
	<g>
		<path fill="none" d="M297.639,49.946c-137.144,0-248.719,111.575-248.719,248.72c0,137.146,111.576,248.723,248.719,248.723
			c137.146,0,248.723-111.576,248.723-248.723C546.361,161.521,434.784,49.946,297.639,49.946z"/>
		<path fill="#FFFFFF" d="M297.639,33.787c-146.055,0-264.879,118.825-264.879,264.879c0,146.056,118.824,264.882,264.879,264.882
			S562.52,444.722,562.52,298.666C562.52,152.612,443.693,33.787,297.639,33.787z M48.919,298.666
			c0-137.146,111.576-248.72,248.719-248.72c137.146,0,248.723,111.575,248.723,248.72c0,137.146-111.577,248.723-248.723,248.723
			C160.495,547.389,48.919,435.812,48.919,298.666z"/>
	</g>
</g>
</svg>
