<?xml version="1.0" encoding="utf-8"?>
<!-- Generator: Adobe Illustrator 16.0.0, SVG Export Plug-In . SVG Version: 6.00 Build 0)  -->
<!DOCTYPE svg PUBLIC "-//W3C//DTD SVG 1.1//EN" "http://www.w3.org/Graphics/SVG/1.1/DTD/svg11.dtd">
<svg version="1.1" id="Layer_1" xmlns="http://www.w3.org/2000/svg" xmlns:xlink="http://www.w3.org/1999/xlink" x="0px" y="0px"
	 width="120px" height="120px" viewBox="0 0 120 120" enable-background="new 0 0 120 120" xml:space="preserve">
<g>
	<defs>
		<path id="SVGID_1_" d="M52.743,64.135c-0.408,0-0.739,0.782-0.739,1.743c0,0.964,0.331,1.743,0.739,1.743h17.11
			c0.408,0,0.736-0.779,0.736-1.743c0-0.961-0.328-1.743-0.736-1.743H52.743z"/>
	</defs>
	<clipPath id="SVGID_2_">
		<use xlink:href="#SVGID_1_"  overflow="visible"/>
	</clipPath>
	
		<linearGradient id="SVGID_3_" gradientUnits="userSpaceOnUse" x1="-243.7642" y1="483.6328" x2="-242.7615" y2="483.6328" gradientTransform="matrix(-100.4101 -1.530000e-05 1.530000e-05 -100.4101 -24377 48627.375)">
		<stop  offset="0" style="stop-color:#DE8D58"/>
		<stop  offset="0.4892" style="stop-color:#FFDC70"/>
		<stop  offset="1" style="stop-color:#F89C49"/>
	</linearGradient>
	<rect x="52.004" y="64.135" clip-path="url(#SVGID_2_)" fill="url(#SVGID_3_)" width="18.586" height="3.486"/>
</g>
<g>
	<defs>
		<path id="SVGID_4_" d="M24.607,51.012c0.033,7.943,6.041,11.948,11.978,11.914c4.975,0,10.212-2.603,11.079-9.208h-5.873
			c-0.634,2.502-2.667,3.771-5.206,3.771c-3.536-0.034-5.804-3.037-5.804-6.476c0-3.869,2.303-6.506,5.804-6.506
			c2.505,0,4.272,1.069,5.107,3.438h5.874c-0.904-6.24-6.143-8.877-10.981-8.877C30.648,39.067,24.64,43.073,24.607,51.012"/>
	</defs>
	<clipPath id="SVGID_5_">
		<use xlink:href="#SVGID_4_"  overflow="visible"/>
	</clipPath>
	
		<linearGradient id="SVGID_6_" gradientUnits="userSpaceOnUse" x1="-243.7534" y1="483.6484" x2="-242.7534" y2="483.6484" gradientTransform="matrix(-100.9412 -1.530000e-05 1.530000e-05 -100.9412 -24505 48871.125)">
		<stop  offset="0" style="stop-color:#DE8D58"/>
		<stop  offset="0.4892" style="stop-color:#FFDC70"/>
		<stop  offset="1" style="stop-color:#F89C49"/>
	</linearGradient>
	<rect x="24.607" y="39.067" clip-path="url(#SVGID_5_)" fill="url(#SVGID_6_)" width="23.057" height="23.893"/>
</g>
<g>
	<defs>
		<path id="SVGID_7_" d="M64.818,39.334v15.483c0,1.903-1.803,2.837-3.535,2.837c-1.736,0-3.574-0.934-3.574-2.837V39.334h-5.705
			v15.583c0,5.14,4.506,8.11,9.279,8.11c4.804,0,9.307-2.97,9.307-8.11V39.334H64.818z"/>
	</defs>
	<clipPath id="SVGID_8_">
		<use xlink:href="#SVGID_7_"  overflow="visible"/>
	</clipPath>
	
		<linearGradient id="SVGID_9_" gradientUnits="userSpaceOnUse" x1="-243.7642" y1="483.6367" x2="-242.7615" y2="483.6367" gradientTransform="matrix(-100.4101 -1.530000e-05 1.530000e-05 -100.4101 -24377 48613.125)">
		<stop  offset="0" style="stop-color:#DE8D58"/>
		<stop  offset="0.4892" style="stop-color:#FFDC70"/>
		<stop  offset="1" style="stop-color:#F89C49"/>
	</linearGradient>
	<rect x="52.004" y="39.334" clip-path="url(#SVGID_8_)" fill="url(#SVGID_9_)" width="18.586" height="23.693"/>
</g>
<g>
	<defs>
		<path id="SVGID_10_" d="M82.307,44.675c1.366,0,2.866-0.034,4.269,0c3.473,0.032,3.272,6.672,0,6.672h-4.269V44.675z
			 M76.333,39.334v23.357h5.974V56.72h4.303c11.18,0,11.18-17.353,0-17.386H76.333z"/>
	</defs>
	<clipPath id="SVGID_11_">
		<use xlink:href="#SVGID_10_"  overflow="visible"/>
	</clipPath>
	
		<linearGradient id="SVGID_12_" gradientUnits="userSpaceOnUse" x1="-243.7271" y1="483.7012" x2="-242.7247" y2="483.7012" gradientTransform="matrix(-102.5097 -1.530000e-05 1.530000e-05 -102.5097 -24884.375 49634.9375)">
		<stop  offset="0" style="stop-color:#DE8D58"/>
		<stop  offset="0.4892" style="stop-color:#FFDC70"/>
		<stop  offset="1" style="stop-color:#F89C49"/>
	</linearGradient>
	<rect x="76.333" y="39.334" clip-path="url(#SVGID_11_)" fill="url(#SVGID_12_)" width="21.456" height="23.357"/>
</g>
<g>
	<defs>
		<path id="SVGID_13_" d="M23.881,78.545c0.019,4.438,3.375,6.676,6.695,6.657c2.778,0,5.706-1.456,6.191-5.146h-3.28
			c-0.357,1.396-1.494,2.105-2.911,2.105c-1.976-0.018-3.245-1.697-3.245-3.617c0-2.164,1.286-3.635,3.245-3.635
			c1.397,0,2.387,0.595,2.851,1.919h3.282c-0.502-3.487-3.433-4.959-6.133-4.959C27.256,71.87,23.9,74.105,23.881,78.545"/>
	</defs>
	<clipPath id="SVGID_14_">
		<use xlink:href="#SVGID_13_"  overflow="visible"/>
	</clipPath>
	
		<linearGradient id="SVGID_15_" gradientUnits="userSpaceOnUse" x1="-243.7319" y1="483.6895" x2="-242.7358" y2="483.6895" gradientTransform="matrix(-102.0384 -1.530000e-05 1.530000e-05 -102.0384 -24769.8125 49433.3125)">
		<stop  offset="0" style="stop-color:#DE8D58"/>
		<stop  offset="0.4892" style="stop-color:#FFDC70"/>
		<stop  offset="1" style="stop-color:#F89C49"/>
	</linearGradient>
	<rect x="23.881" y="71.87" clip-path="url(#SVGID_14_)" fill="url(#SVGID_15_)" width="12.886" height="13.351"/>
</g>
<g>
	<defs>
		<path id="SVGID_16_" d="M41.952,78.562c0-4.699,6.546-4.699,6.546,0c0,2.369-1.637,3.553-3.273,3.553
			C43.588,82.115,41.952,80.932,41.952,78.562 M38.521,78.562c0,9.047,13.389,9.047,13.389,0c0-4.512-3.347-6.769-6.694-6.769
			C41.868,71.794,38.521,74.051,38.521,78.562"/>
	</defs>
	<clipPath id="SVGID_17_">
		<use xlink:href="#SVGID_16_"  overflow="visible"/>
	</clipPath>
	
		<linearGradient id="SVGID_18_" gradientUnits="userSpaceOnUse" x1="-243.7695" y1="483.623" x2="-242.7659" y2="483.623" gradientTransform="matrix(-100.1488 -1.530000e-05 1.530000e-05 -100.1488 -24313.75 48514.0625)">
		<stop  offset="0" style="stop-color:#DE8D58"/>
		<stop  offset="0.4892" style="stop-color:#FFDC70"/>
		<stop  offset="1" style="stop-color:#F89C49"/>
	</linearGradient>
	<rect x="38.521" y="71.794" clip-path="url(#SVGID_17_)" fill="url(#SVGID_18_)" width="13.389" height="15.815"/>
</g>
<g>
	<defs>
		<polygon id="SVGID_19_" points="54.428,72.02 54.428,85.07 57.821,85.07 57.821,80.837 62.018,80.837 62.018,77.855 
			57.821,77.855 57.821,75.002 62.559,75.002 62.559,72.02 		"/>
	</defs>
	<clipPath id="SVGID_20_">
		<use xlink:href="#SVGID_19_"  overflow="visible"/>
	</clipPath>
	
		<linearGradient id="SVGID_21_" gradientUnits="userSpaceOnUse" x1="-243.7778" y1="483.6084" x2="-242.7778" y2="483.6084" gradientTransform="matrix(-99.5497 -1.530000e-05 1.530000e-05 -99.5497 -24169.0625 48221.5)">
		<stop  offset="0" style="stop-color:#DE8D58"/>
		<stop  offset="0.4892" style="stop-color:#FFDC70"/>
		<stop  offset="1" style="stop-color:#F89C49"/>
	</linearGradient>
	<rect x="54.428" y="72.02" clip-path="url(#SVGID_20_)" fill="url(#SVGID_21_)" width="8.13" height="13.052"/>
</g>
<g>
	<defs>
		<polygon id="SVGID_22_" points="65.131,72.02 65.131,85.07 68.523,85.07 68.523,80.837 72.721,80.837 72.721,77.855 
			68.523,77.855 68.523,75.002 73.264,75.002 73.264,72.02 		"/>
	</defs>
	<clipPath id="SVGID_23_">
		<use xlink:href="#SVGID_22_"  overflow="visible"/>
	</clipPath>
	
		<linearGradient id="SVGID_24_" gradientUnits="userSpaceOnUse" x1="-243.7349" y1="483.6895" x2="-242.7349" y2="483.6895" gradientTransform="matrix(-102.0384 -1.530000e-05 1.530000e-05 -102.0384 -24770.3125 49433.3125)">
		<stop  offset="0" style="stop-color:#DE8D58"/>
		<stop  offset="0.4892" style="stop-color:#FFDC70"/>
		<stop  offset="1" style="stop-color:#F89C49"/>
	</linearGradient>
	<rect x="65.131" y="72.02" clip-path="url(#SVGID_23_)" fill="url(#SVGID_24_)" width="8.133" height="13.052"/>
</g>
<g>
	<defs>
		<polygon id="SVGID_25_" points="75.835,72.02 75.835,85.07 84.154,85.07 84.154,82.109 79.156,82.109 79.156,79.814 
			83.596,79.814 83.596,76.848 79.156,76.848 79.156,75.002 83.982,75.002 83.982,72.02 		"/>
	</defs>
	<clipPath id="SVGID_26_">
		<use xlink:href="#SVGID_25_"  overflow="visible"/>
	</clipPath>
	
		<linearGradient id="SVGID_27_" gradientUnits="userSpaceOnUse" x1="-243.7144" y1="483.7275" x2="-242.7144" y2="483.7275" gradientTransform="matrix(-103.2531 -1.530000e-05 1.530000e-05 -103.2531 -25064 50024.875)">
		<stop  offset="0" style="stop-color:#DE8D58"/>
		<stop  offset="0.4892" style="stop-color:#FFDC70"/>
		<stop  offset="1" style="stop-color:#F89C49"/>
	</linearGradient>
	<rect x="75.835" y="72.02" clip-path="url(#SVGID_26_)" fill="url(#SVGID_27_)" width="8.319" height="13.052"/>
</g>
<g>
	<defs>
		<polygon id="SVGID_28_" points="87.025,72.02 87.025,85.07 95.342,85.07 95.342,82.109 90.346,82.109 90.346,79.814 
			94.782,79.814 94.782,76.848 90.346,76.848 90.346,75.002 95.174,75.002 95.174,72.02 		"/>
	</defs>
	<clipPath id="SVGID_29_">
		<use xlink:href="#SVGID_28_"  overflow="visible"/>
	</clipPath>
	
		<linearGradient id="SVGID_30_" gradientUnits="userSpaceOnUse" x1="-243.7134" y1="483.7275" x2="-242.7194" y2="483.7275" gradientTransform="matrix(-103.2531 -1.530000e-05 1.530000e-05 -103.2531 -25064.25 50024.875)">
		<stop  offset="0" style="stop-color:#DE8D58"/>
		<stop  offset="0.4892" style="stop-color:#FFDC70"/>
		<stop  offset="1" style="stop-color:#F89C49"/>
	</linearGradient>
	<rect x="87.025" y="72.02" clip-path="url(#SVGID_29_)" fill="url(#SVGID_30_)" width="8.316" height="13.052"/>
</g>
<g>
	<defs>
		<path id="SVGID_31_" d="M59.325,25.668c-0.277,0.087-0.426,0.381-0.338,0.656c0.522,1.647,0.194,3.388-0.904,4.776
			c-0.832,1.055-1.175,2.178-1.02,3.338c0.299,2.21,2.322,3.722,2.407,3.786c0.094,0.069,0.202,0.103,0.31,0.103
			c0.159,0,0.317-0.075,0.422-0.213c0.171-0.233,0.12-0.561-0.112-0.732c-0.019-0.011-1.754-1.307-1.993-3.083
			c-0.116-0.871,0.153-1.726,0.806-2.551c1.313-1.665,1.709-3.757,1.076-5.742c-0.07-0.221-0.274-0.362-0.496-0.362
			C59.43,25.644,59.377,25.652,59.325,25.668"/>
	</defs>
	<clipPath id="SVGID_32_">
		<use xlink:href="#SVGID_31_"  overflow="visible"/>
	</clipPath>
	
		<linearGradient id="SVGID_33_" gradientUnits="userSpaceOnUse" x1="-243.7349" y1="483.6875" x2="-242.7349" y2="483.6875" gradientTransform="matrix(-102.0384 -1.530000e-05 1.530000e-05 -102.0384 -24770.3125 49386.625)">
		<stop  offset="0" style="stop-color:#DE8D58"/>
		<stop  offset="0.4892" style="stop-color:#FFDC70"/>
		<stop  offset="1" style="stop-color:#F89C49"/>
	</linearGradient>
	<rect x="56.908" y="25.644" clip-path="url(#SVGID_32_)" fill="url(#SVGID_33_)" width="3.704" height="12.683"/>
</g>
<g>
	<defs>
		<path id="SVGID_34_" d="M61.52,25.668c-0.273,0.087-0.426,0.381-0.338,0.656c0.522,1.647,0.195,3.388-0.902,4.776
			c-0.834,1.055-1.177,2.178-1.019,3.338c0.296,2.21,2.32,3.722,2.406,3.786c0.092,0.069,0.199,0.103,0.31,0.103
			c0.158,0,0.317-0.075,0.42-0.213c0.17-0.233,0.121-0.561-0.111-0.732c-0.018-0.011-1.754-1.307-1.992-3.083
			c-0.117-0.871,0.154-1.726,0.807-2.551c1.314-1.665,1.707-3.757,1.077-5.742c-0.071-0.221-0.278-0.362-0.499-0.362
			C61.626,25.644,61.572,25.652,61.52,25.668"/>
	</defs>
	<clipPath id="SVGID_35_">
		<use xlink:href="#SVGID_34_"  overflow="visible"/>
	</clipPath>
	
		<linearGradient id="SVGID_36_" gradientUnits="userSpaceOnUse" x1="-243.7349" y1="483.6875" x2="-242.7349" y2="483.6875" gradientTransform="matrix(-102.0384 -1.530000e-05 1.530000e-05 -102.0384 -24770.3125 49386.625)">
		<stop  offset="0" style="stop-color:#DE8D58"/>
		<stop  offset="0.4892" style="stop-color:#FFDC70"/>
		<stop  offset="1" style="stop-color:#F89C49"/>
	</linearGradient>
	<rect x="59.103" y="25.644" clip-path="url(#SVGID_35_)" fill="url(#SVGID_36_)" width="3.704" height="12.683"/>
</g>
<g>
	<defs>
		<path id="SVGID_37_" d="M63.752,25.668c-0.273,0.087-0.426,0.381-0.339,0.656c0.524,1.647,0.194,3.388-0.903,4.776
			c-0.832,1.055-1.176,2.178-1.019,3.338c0.297,2.21,2.321,3.722,2.405,3.786c0.095,0.069,0.205,0.103,0.312,0.103
			c0.159,0,0.317-0.075,0.422-0.213c0.166-0.233,0.118-0.561-0.114-0.732c-0.017-0.011-1.75-1.307-1.992-3.083
			c-0.114-0.871,0.156-1.726,0.805-2.551c1.316-1.665,1.708-3.757,1.08-5.742c-0.071-0.221-0.278-0.362-0.499-0.362
			C63.857,25.644,63.805,25.652,63.752,25.668"/>
	</defs>
	<clipPath id="SVGID_38_">
		<use xlink:href="#SVGID_37_"  overflow="visible"/>
	</clipPath>
	
		<linearGradient id="SVGID_39_" gradientUnits="userSpaceOnUse" x1="-243.7393" y1="483.6875" x2="-242.7257" y2="483.6875" gradientTransform="matrix(-102.0384 -1.530000e-05 1.530000e-05 -102.0384 -24770.3125 49386.625)">
		<stop  offset="0" style="stop-color:#DE8D58"/>
		<stop  offset="0.4892" style="stop-color:#FFDC70"/>
		<stop  offset="1" style="stop-color:#F89C49"/>
	</linearGradient>
	<rect x="61.334" y="25.644" clip-path="url(#SVGID_38_)" fill="url(#SVGID_39_)" width="3.702" height="12.683"/>
</g>
<g>
	<defs>
		<path id="SVGID_40_" d="M12.246,60.11c0-26.118,21.248-47.367,47.366-47.367c26.119,0,47.367,21.249,47.367,47.367
			c0,26.121-21.248,47.369-47.367,47.369C33.494,107.479,12.246,86.23,12.246,60.11 M9.166,60.11
			c0,27.816,22.633,50.447,50.446,50.447c27.815,0,50.445-22.631,50.445-50.447c0-27.814-22.63-50.443-50.445-50.443
			C31.799,9.667,9.166,32.296,9.166,60.11"/>
	</defs>
	<clipPath id="SVGID_41_">
		<use xlink:href="#SVGID_40_"  overflow="visible"/>
	</clipPath>
	
		<linearGradient id="SVGID_42_" gradientUnits="userSpaceOnUse" x1="-243.7456" y1="483.6719" x2="-242.7456" y2="483.6719" gradientTransform="matrix(-101.3875 -1.530000e-05 1.530000e-05 -101.3875 -24613.0625 49098.3125)">
		<stop  offset="0" style="stop-color:#DE8D58"/>
		<stop  offset="0.4892" style="stop-color:#FFDC70"/>
		<stop  offset="1" style="stop-color:#F89C49"/>
	</linearGradient>
	<rect x="9.166" y="9.667" clip-path="url(#SVGID_41_)" fill="url(#SVGID_42_)" width="100.891" height="100.89"/>
</g>
</svg>
