<?xml version="1.0"?>
<svg width="200" height="80" xmlns="http://www.w3.org/2000/svg">
 <g>
  <title>Layer 1</title>
  <g id="svg_3">
   <g id="svg_4">
    <path id="svg_5" d="m190.477005,55.719002c-0.735992,3.827999 -4.438004,6.331997 -8.263992,5.595997l-165.887012,-31.951998c-3.827001,-0.737001 -6.333,-4.437 -5.596001,-8.265001l1.502001,-7.794999c0.737,-3.829 4.438,-6.333001 8.264,-5.596001l165.886995,31.951001c3.826996,0.737 6.334,4.436001 5.597,8.265999l-1.502991,7.795002z" stroke-miterlimit="10" stroke-width="5.6693" stroke="#FF8603" fill="#FF8603"/>
    <path id="svg_6" d="m182.022995,62.293999l-165.885996,-31.950998c-4.360999,-0.84 -7.225999,-5.073 -6.385999,-9.434l1.500999,-7.795c0.84,-4.362 5.072,-7.228 9.433,-6.388l165.886,31.950998c4.362,0.84 7.227997,5.072002 6.386002,9.433002l-1.5,7.795998c-0.841995,4.363003 -5.072006,7.229 -9.434006,6.388zm-161.714994,-53.606998c-3.280001,-0.631001 -6.464001,1.523 -7.096001,4.804999l-1.500999,7.795001c-0.632,3.282 1.523,6.463999 4.803999,7.095999l165.886993,31.951c3.279999,0.631001 6.464996,-1.522999 7.095001,-4.805l1.502991,-7.794998c0.632004,-3.282001 -1.522995,-6.464001 -4.804993,-7.097l-165.886992,-31.950001z" stroke-miterlimit="10" stroke-width="5.6693" stroke="#DA4428" fill="#DA4428"/>
   </g>
   <g id="svg_7">
    <path id="svg_8" d="m182.022995,62.293999l-165.885996,-31.950998c-4.360999,-0.84 -7.225999,-5.073 -6.385999,-9.434l1.500999,-7.795c0.84,-4.362 5.072,-7.228 9.433,-6.388l165.886,31.950998c4.362,0.84 7.227997,5.072002 6.386002,9.433002l-1.5,7.795998c-0.841995,4.363003 -5.072006,7.229 -9.434006,6.388zm-161.714994,-53.606998c-3.280001,-0.631001 -6.464001,1.523 -7.096001,4.804999l-1.500999,7.795001c-0.632,3.282 1.523,6.463999 4.803999,7.095999l165.886993,31.951c3.279999,0.631001 6.464996,-1.522999 7.095001,-4.805l1.502991,-7.794998c0.632004,-3.282001 -1.522995,-6.464001 -4.804993,-7.097l-165.886992,-31.950001z" stroke-miterlimit="10" stroke-width="5.6693" stroke="#DA4428" fill="#DA4428"/>
    <path id="svg_9" d="m179.796997,73.848999l-165.885997,-31.951c-4.901,-0.942997 -8.121,-5.701 -7.177,-10.600998l3.539,-18.372001c0.944,-4.901 5.7,-8.121 10.601001,-7.178l165.885994,31.951002c4.903,0.943996 8.121994,5.700996 7.177994,10.601997l-3.537994,18.371998c-0.944,4.900002 -5.699997,8.121002 -10.602997,7.177002zm-159.300997,-66.140999c-3.821001,-0.736 -7.529,1.773 -8.264,5.596l-1.502001,7.795001c-0.735999,3.821999 1.774,7.528999 5.596001,8.264999l165.886997,31.950998c3.821991,0.735001 7.526993,-1.772999 8.263992,-5.595997l1.503006,-7.795002c0.735001,-3.821999 -1.774002,-7.529999 -5.597,-8.265999l-165.886995,-31.950001zm161.716997,53.605999l-165.886997,-31.950998c-3.821,-0.736 -6.332,-4.443001 -5.596001,-8.265001l1.502001,-7.794999c0.735,-3.823001 4.442999,-6.332001 8.264,-5.596001l165.886995,31.951001c3.821991,0.736 6.332001,4.443001 5.597,8.265999l-1.503006,7.795002c-0.736984,3.821999 -4.441986,6.330997 -8.263992,5.594997zm-162.093998,-51.646999c-2.740999,-0.528 -5.398999,1.271 -5.927999,4.013l-1.500999,7.795c-0.528001,2.742001 1.271999,5.4 4.012999,5.928999l165.886997,31.950001c2.740997,0.527 5.39801,-1.271 5.929001,-4.014l1.5,-7.796001c0.527008,-2.739998 -1.270996,-5.399998 -4.013,-5.926998l-165.886997,-31.950001z" stroke-miterlimit="10" stroke-width="5.6693" stroke="#FF8603" fill="#FF8603"/>
   </g>
  </g>
  <g id="svg_10">
   <path id="svg_11" d="m188.498993,65.738998c-0.737,3.826004 -4.438004,6.332001 -8.264999,5.596001l-165.886993,-31.951c-3.827,-0.737999 -6.332,-4.438 -5.595,-8.264999l1.502,-7.796c0.737,-3.827 4.438001,-6.333 8.264,-5.596001l165.886007,31.951002c3.827988,0.736 6.334,4.438 5.597,8.264999l-1.502014,7.795998z" fill="#FF8603"/>
   <path id="svg_12" d="m180.046005,72.314003l-165.887005,-31.950005c-4.361,-0.84 -7.227,-5.071999 -6.386001,-9.433998l3.479,-18.065001c0.84,-4.362 5.072,-7.228 9.433,-6.388l165.886,31.951001c4.362,0.84 7.227997,5.071999 6.386002,9.432999l-3.479004,18.066002c-0.838989,4.362 -5.071991,7.227997 -9.431992,6.387001zm-159.738005,-63.877003c-3.280001,-0.631001 -6.464001,1.523 -7.096001,4.804999l-3.48,18.067c-0.632,3.280001 1.523999,6.462999 4.804999,7.094999l165.886996,31.951004c3.280991,0.630997 6.464996,-1.523003 7.095993,-4.804001l3.479996,-18.066002c0.632004,-3.282001 -1.522995,-6.464001 -4.804993,-7.097l-165.886992,-31.951z" fill="#FFFFFF"/>
  </g>
  <text xml:space="preserve" text-anchor="middle" font-family="Monospace" font-size="24" id="svg_43" y="-20.5" x="27.75" stroke-linecap="null" stroke-linejoin="null" stroke-width="0" stroke="#000000" fill="#ff7f00"/>
  <text transform="rotate(11.282449722290039 98.10410308837893,38.317657470703104) matrix(1.2276763916015625,0,0,1.2276763916015625,-7.04373836517334,-5.0729146003723145) " font-weight="bold" xml:space="preserve" text-anchor="middle" font-family="Monospace" font-size="24" id="svg_44" y="43.247545" x="85.649266" stroke-linecap="null" stroke-linejoin="null" stroke-width="0" stroke="#000000" fill="#ffffff">Puzzle 15</text>
 </g>
</svg>