<?xml version="1.0" encoding="utf-8"?>
<!-- Generator: Adobe Illustrator 16.0.0, SVG Export Plug-In . SVG Version: 6.00 Build 0)  -->
<!DOCTYPE svg PUBLIC "-//W3C//DTD SVG 1.1//EN" "http://www.w3.org/Graphics/SVG/1.1/DTD/svg11.dtd">
<svg version="1.1" id="Layer_1" xmlns="http://www.w3.org/2000/svg" xmlns:xlink="http://www.w3.org/1999/xlink" x="0px" y="0px"
	 width="200px" height="80px" viewBox="0 0 200 80" enable-background="new 0 0 200 80" xml:space="preserve">
<g>
	<g>
		<path fill="#DA4428" stroke="#DA4428" stroke-width="5.6693" stroke-miterlimit="10" d="M190.477,55.469
			c-0.736,3.828-4.438,6.332-8.264,5.596L16.326,29.113c-3.827-0.737-6.333-4.437-5.596-8.265l1.502-7.795
			c0.737-3.829,4.438-6.333,8.264-5.596l165.887,31.951c3.827,0.737,6.334,4.436,5.597,8.266L190.477,55.469z"/>
		<path fill="#DA4428" stroke="#DA4428" stroke-width="5.6693" stroke-miterlimit="10" d="M182.023,62.044L16.137,30.093
			c-4.361-0.84-7.226-5.073-6.386-9.434l1.501-7.795c0.84-4.362,5.072-7.228,9.433-6.388l165.886,31.951
			c4.362,0.84,7.228,5.072,6.386,9.433l-1.5,7.796C190.615,60.019,186.385,62.885,182.023,62.044z M20.308,8.437
			c-3.28-0.631-6.464,1.523-7.096,4.805l-1.501,7.795c-0.632,3.282,1.523,6.464,4.804,7.096l165.887,31.951
			c3.28,0.631,6.465-1.523,7.095-4.805l1.503-7.795c0.632-3.282-1.523-6.464-4.805-7.097L20.308,8.437z"/>
	</g>
	<g>
		<path fill="#DA4428" stroke="#DA4428" stroke-width="5.6693" stroke-miterlimit="10" d="M182.023,62.044L16.137,30.093
			c-4.361-0.84-7.226-5.073-6.386-9.434l1.501-7.795c0.84-4.362,5.072-7.228,9.433-6.388l165.886,31.951
			c4.362,0.84,7.228,5.072,6.386,9.433l-1.5,7.796C190.615,60.019,186.385,62.885,182.023,62.044z M20.308,8.437
			c-3.28-0.631-6.464,1.523-7.096,4.805l-1.501,7.795c-0.632,3.282,1.523,6.464,4.804,7.096l165.887,31.951
			c3.28,0.631,6.465-1.523,7.095-4.805l1.503-7.795c0.632-3.282-1.523-6.464-4.805-7.097L20.308,8.437z"/>
		<path fill="#DA4428" stroke="#DA4428" stroke-width="5.6693" stroke-miterlimit="10" d="M179.797,73.599L13.911,41.648
			c-4.901-0.943-8.121-5.701-7.177-10.601l3.539-18.372c0.944-4.901,5.7-8.121,10.601-7.178L186.76,37.448
			c4.903,0.944,8.122,5.701,7.178,10.602L190.4,66.422C189.456,71.322,184.7,74.543,179.797,73.599z M20.496,7.458
			c-3.821-0.736-7.529,1.773-8.264,5.596l-1.502,7.795c-0.736,3.822,1.774,7.529,5.596,8.265l165.887,31.951
			c3.822,0.735,7.527-1.773,8.264-5.596l1.503-7.795c0.735-3.822-1.774-7.53-5.597-8.266L20.496,7.458z M182.213,61.064
			L16.326,29.113c-3.821-0.736-6.332-4.443-5.596-8.265l1.502-7.795c0.735-3.823,4.443-6.332,8.264-5.596l165.887,31.951
			c3.822,0.736,6.332,4.443,5.597,8.266l-1.503,7.795C189.74,59.291,186.035,61.8,182.213,61.064z M20.119,9.417
			c-2.741-0.528-5.399,1.271-5.928,4.013l-1.501,7.795c-0.528,2.742,1.272,5.4,4.013,5.929L182.59,59.104
			c2.741,0.527,5.398-1.271,5.929-4.014l1.5-7.796c0.527-2.74-1.271-5.4-4.013-5.927L20.119,9.417z"/>
	</g>
</g>
<g>
	<path fill="#DA4428" d="M188.499,65.739c-0.737,3.826-4.438,6.332-8.265,5.596L14.347,39.384c-3.827-0.738-6.332-4.438-5.595-8.265
		l1.502-7.796c0.737-3.827,4.438-6.333,8.264-5.596l165.886,31.951c3.828,0.736,6.334,4.438,5.597,8.265L188.499,65.739z"/>
	<path fill="#FFFFFF" d="M180.046,72.314L14.159,40.364c-4.361-0.84-7.227-5.072-6.386-9.434l3.479-18.065
		c0.84-4.362,5.072-7.228,9.433-6.388l165.886,31.951c4.362,0.84,7.228,5.072,6.386,9.433l-3.479,18.066
		C188.639,70.289,184.406,73.155,180.046,72.314z M20.308,8.437c-3.28-0.631-6.464,1.523-7.096,4.805l-3.48,18.067
		c-0.632,3.28,1.524,6.463,4.805,7.095l165.887,31.951c3.281,0.631,6.465-1.523,7.096-4.804l3.48-18.066
		c0.632-3.282-1.523-6.464-4.805-7.097L20.308,8.437z"/>
</g>
<g>
	<path fill="#FFFFFF" d="M27.996,15.653l-2.701-0.519l-1.818,9.44l-2.311-0.445l1.818-9.44l-2.768-0.534l0.36-1.872l8.156,1.571
		L27.996,15.653z"/>
	<path fill="#FFFFFF" d="M35.162,15.092c1.123,0.215,1.997,0.502,2.643,1.353c0.47,0.63,0.687,1.348,0.524,2.194
		c-0.092,0.472-0.343,1.251-1.129,1.741c-0.191,0.115-0.587,0.326-1.156,0.386c0.405,0.179,0.791,0.456,1.132,0.876
		c0.587,0.721,0.748,1.461,0.565,2.406c-0.338,1.756-1.746,2.938-4.042,2.496l-4.542-0.875l2.179-11.312L35.162,15.092z
		 M32.711,19.312l1.53,0.295c0.342,0.065,0.736,0.125,1.13-0.17c0.255-0.187,0.438-0.523,0.504-0.866
		c0.097-0.503-0.042-1.004-0.431-1.264c-0.314-0.212-0.705-0.287-0.916-0.329l-1.319-0.253L32.711,19.312z M33.405,24.562
		c0.439,0.084,0.858,0.098,1.312-0.322c0.249-0.239,0.435-0.591,0.507-0.966c0.088-0.455,0.01-0.926-0.205-1.221
		c-0.265-0.371-0.683-0.486-1.024-0.552l-1.611-0.31l-0.589,3.06L33.405,24.562z"/>
	<path fill="#FFFFFF" d="M50.57,19.41c0.7,1.181,0.89,2.822,0.542,4.629c-0.344,1.789-1.127,3.227-2.22,4.079
		c-0.776,0.61-2.03,1.162-3.804,0.821c-1.774-0.342-2.733-1.321-3.228-2.175c-0.698-1.198-0.891-2.823-0.547-4.613
		c0.348-1.807,1.135-3.259,2.224-4.096c0.776-0.61,2.03-1.162,3.804-0.82C49.116,17.578,50.076,18.556,50.57,19.41z M44.918,19.824
		c-0.293,0.382-0.685,1.016-1.033,2.823c-0.344,1.79-0.216,2.524-0.086,2.988c0.182,0.642,0.55,1.354,1.625,1.562
		c1.074,0.207,1.682-0.318,2.087-0.848c0.294-0.382,0.686-1.016,1.031-2.805c0.348-1.808,0.219-2.542,0.089-3.006
		c-0.12-0.427-0.435-1.333-1.624-1.562C45.818,18.749,45.19,19.472,44.918,19.824z"/>
	<path fill="#FFFFFF" d="M60.881,31.778l-2.311-0.445l0.887-4.608l-0.961-0.184c-0.438-0.085-0.88,0.016-1.168,0.197
		c-0.269,0.167-0.582,0.563-0.731,0.905l-0.482,1.104c-0.215,0.499-0.429,1-0.807,1.298c-0.504,0.426-1.146,0.42-1.493,0.387
		L52.5,30.333l-0.12-1.66l0.361-0.033c0.188-0.014,0.575-0.092,0.702-0.134c0.379-0.129,0.538-0.421,0.696-0.726l0.623-1.215
		c0.215-0.415,0.527-0.81,0.874-1.03c0.289-0.182,0.699-0.305,1.012-0.347c-0.616-0.22-1.189-0.666-1.495-1.182
		c-0.344-0.573-0.417-1.33-0.28-2.045c0.16-0.83,0.699-1.621,1.506-2.039c0.94-0.494,1.945-0.369,2.791-0.207l3.89,0.749
		L60.881,31.778z M59.145,21.602c-0.342-0.066-0.719-0.122-1.063-0.002c-0.272,0.099-0.729,0.367-0.876,1.132
		c-0.072,0.374-0.082,0.862,0.12,1.221c0.273,0.508,0.807,0.628,1.067,0.678l1.416,0.273l0.589-3.061L59.145,21.602z"/>
	<path fill="#FFFFFF" d="M75.141,34.525l0.906-4.705c-0.906,0.231-1.856,0.167-2.475,0.048c-0.504-0.098-1.501-0.357-2.079-1.211
		c-0.525-0.776-0.427-1.551-0.331-2.056l0.85-4.411l2.312,0.445l-0.684,3.549c-0.069,0.358-0.168,0.963,0.036,1.391
		c0.241,0.504,0.752,0.651,1.046,0.708c0.455,0.087,0.893,0.088,1.628-0.041l0.969-5.03l2.311,0.445l-2.179,11.312L75.141,34.525z"
		/>
	<path fill="#FFFFFF" d="M87.544,36.914l-0.281-2.84l-3.32-0.641l-1.314,2.533l-2.376-0.458l5.895-10.629l2.459,0.474l1.379,12.031
		L87.544,36.914z M87.07,32.096c-0.136-1.225-0.156-1.819-0.176-2.415c-0.031-0.629-0.069-0.958-0.073-2.073
		c-0.294,0.652-0.727,1.582-0.954,2.062c-0.502,1.033-0.676,1.405-1.01,2L87.07,32.096z"/>
	<path fill="#FFFFFF" d="M95.412,36.554l2.898,0.559l1.831-9.505l2.277,0.438l-1.83,9.505l2.898,0.559l1.83-9.505l2.277,0.438
		l-2.179,11.312l-12.63-2.432l2.179-11.313l2.279,0.438L95.412,36.554z"/>
	<path fill="#FFFFFF" d="M119.95,32.825l-0.547,0.029c-0.204,0.011-0.361,0.032-0.564,0.128c-0.205,0.095-0.365,0.232-0.584,0.664
		l-0.517,1.014c-0.189,0.369-0.41,0.816-0.841,1.122c-0.271,0.184-0.62,0.335-1.029,0.359c0.396,0.21,0.632,0.476,0.778,0.688
		c0.303,0.449,0.372,0.951,0.419,1.332l0.166,1.771c0.034,0.343,0.072,0.672,0.376,0.933c0.103,0.086,0.432,0.302,0.603,0.386
		l0.32,0.164l-0.727,1.497l-1.257-0.395c-0.717-0.223-1.064-0.609-1.242-0.914c-0.237-0.434-0.253-0.961-0.267-1.504l-0.059-1.715
		c-0.016-0.358-0.162-0.91-0.335-1.146c-0.257-0.335-0.703-0.472-1.029-0.535l-0.846-0.163l-0.972,5.045l-2.313-0.445l2.179-11.312
		l2.313,0.445l-0.847,4.394l1.009,0.195c0.407,0.079,0.881,0.068,1.184-0.11c0.326-0.191,0.521-0.591,0.674-0.934l0.63-1.346
		c0.143-0.311,0.31-0.734,0.756-1.038c0.371-0.265,0.783-0.305,1.301-0.272l1.12,0.064L119.95,32.825z"/>
	<path fill="#FFFFFF" d="M127.487,44.607l-0.279-2.84l-3.32-0.639l-1.315,2.532l-2.377-0.457l5.897-10.631l2.458,0.473l1.379,12.031
		L127.487,44.607z M127.017,39.79c-0.136-1.225-0.157-1.82-0.178-2.415c-0.031-0.63-0.069-0.958-0.073-2.073
		c-0.294,0.651-0.729,1.58-0.954,2.06c-0.502,1.034-0.677,1.407-1.009,2.001L127.017,39.79z"/>
	<path fill="#FFFFFF" d="M148.484,38.32l-0.547,0.029c-0.204,0.011-0.359,0.031-0.564,0.128c-0.204,0.095-0.365,0.232-0.583,0.664
		l-0.518,1.014c-0.188,0.369-0.408,0.816-0.839,1.122c-0.271,0.184-0.622,0.336-1.032,0.359c0.399,0.212,0.635,0.477,0.78,0.688
		c0.301,0.449,0.373,0.951,0.418,1.332l0.166,1.771c0.035,0.343,0.071,0.672,0.376,0.933c0.102,0.087,0.431,0.303,0.602,0.385
		l0.323,0.166l-0.727,1.495l-1.259-0.394c-0.718-0.223-1.063-0.609-1.241-0.914c-0.237-0.434-0.255-0.961-0.269-1.504l-0.059-1.715
		c-0.016-0.357-0.161-0.91-0.336-1.146c-0.255-0.335-0.701-0.472-1.027-0.535l-0.846-0.163l-0.972,5.045l-2.312-0.444l2.179-11.313
		l2.312,0.445l-0.845,4.395l1.008,0.195c0.407,0.079,0.881,0.069,1.186-0.108c0.323-0.192,0.521-0.592,0.67-0.936l0.63-1.346
		c0.145-0.311,0.311-0.735,0.757-1.038c0.373-0.265,0.785-0.304,1.303-0.272l1.118,0.064L148.484,38.32z"/>
	<path fill="#FFFFFF" d="M156.023,50.103l-0.283-2.84l-3.319-0.64l-1.314,2.533l-2.376-0.458l5.896-10.63l2.458,0.474l1.379,12.031
		L156.023,50.103z M155.549,45.285c-0.136-1.225-0.156-1.82-0.176-2.414c-0.03-0.631-0.07-0.958-0.074-2.074
		c-0.292,0.653-0.725,1.582-0.953,2.062c-0.503,1.034-0.676,1.406-1.01,2.001L155.549,45.285z"/>
	<path fill="#FFFFFF" d="M167.269,40.537c1.121,0.215,1.996,0.502,2.643,1.353c0.469,0.63,0.687,1.348,0.522,2.194
		c-0.091,0.472-0.344,1.252-1.128,1.741c-0.193,0.115-0.586,0.326-1.155,0.387c0.404,0.178,0.789,0.454,1.13,0.875
		c0.588,0.721,0.749,1.461,0.567,2.405c-0.338,1.757-1.747,2.938-4.043,2.496l-4.541-0.875l2.179-11.312L167.269,40.537z
		 M164.817,44.758l1.53,0.295c0.342,0.064,0.735,0.124,1.132-0.171c0.254-0.188,0.438-0.524,0.502-0.866
		c0.097-0.504-0.042-1.004-0.431-1.264c-0.314-0.212-0.704-0.287-0.917-0.328l-1.317-0.254L164.817,44.758z M165.512,50.006
		c0.438,0.085,0.857,0.098,1.311-0.321c0.25-0.239,0.435-0.593,0.507-0.967c0.087-0.456,0.01-0.926-0.204-1.221
		c-0.268-0.372-0.682-0.485-1.024-0.552l-1.61-0.31l-0.589,3.06L165.512,50.006z"/>
	<path fill="#FFFFFF" d="M178.646,54.46l1.079-5.599c0.11-0.57,0.373-1.667,0.561-2.375c-0.453,0.858-0.766,1.254-1.161,1.819
		l-3.91,5.494l-2.394-0.461l2.178-11.314l2.312,0.446l-1.077,5.599c-0.11,0.569-0.371,1.668-0.557,2.374
		c0.451-0.856,0.763-1.254,1.16-1.817l3.909-5.494l2.394,0.461l-2.178,11.313L178.646,54.46z"/>
</g>
<g>
	<path fill="#FFFFFF" d="M44.128,39.454c-0.444,0.154-0.91,0.191-1.453,0.086c-1.563-0.3-2.262-1.561-1.908-3.4
		c0.252-1.309,0.917-2.076,1.669-2.403c0.427-0.183,1.012-0.242,1.488-0.15c0.375,0.072,0.77,0.24,1.048,0.465
		c0.188,0.151,0.273,0.249,0.477,0.506l-0.909,0.836c-0.246-0.334-0.535-0.563-0.812-0.617c-0.665-0.128-1.076,0.392-1.333,1.723
		c-0.143,0.74-0.128,1.204,0.014,1.484c0.117,0.229,0.348,0.398,0.604,0.448c0.343,0.066,0.681-0.016,1.108-0.268l0.104-0.06
		l0.503,1.027C44.465,39.311,44.352,39.369,44.128,39.454z"/>
	<path fill="#FFFFFF" d="M51.082,41.183c-0.163-0.169-0.281-0.388-0.336-0.639c-0.434,0.284-1.002,0.37-1.601,0.254
		c-0.798-0.153-1.412-0.663-1.496-1.24c-0.04-0.272-0.015-0.579,0.096-1.155l0.7-3.634l1.517,0.005l-0.702,3.645
		c-0.099,0.51-0.106,0.785-0.058,0.955c0.046,0.169,0.248,0.323,0.469,0.366c0.366,0.07,0.86-0.11,1.025-0.366l0.768-3.989
		l1.476-0.024l-0.834,4.332c-0.073,0.377-0.025,0.789,0.145,1.097L51.082,41.183z"/>
	<path fill="#FFFFFF" d="M59.468,42.098c-0.467,0.334-1.021,0.468-1.642,0.35c-0.443-0.086-0.844-0.278-1.129-0.528
		c-0.002,0.138-0.035,0.303-0.067,0.47l-0.341,1.772l-1.502,0.101l1.263-6.558c0.144-0.744,0.172-0.955,0.186-1.447l1.364,0.02
		c0.017,0.211,0.021,0.372-0.002,0.553c0.315-0.262,0.922-0.376,1.498-0.265c0.4,0.077,0.784,0.289,1.054,0.561
		c0.531,0.525,0.833,1.344,0.581,2.651C60.495,40.997,60.176,41.579,59.468,42.098z M59.181,38.329
		c-0.05-0.331-0.252-0.542-0.617-0.612c-0.366-0.07-0.75,0.016-1.069,0.241l-0.532,2.76c0.167,0.205,0.457,0.432,0.756,0.49
		c0.732,0.14,1.115-0.302,1.366-1.6C59.189,39.067,59.229,38.626,59.181,38.329z"/>
	<path fill="#FFFFFF" d="M63.386,40.909l0.248-1.284l2.659,0.512l-0.247,1.284L63.386,40.909z"/>
	<path fill="#FFFFFF" d="M72.253,44.871c-0.443,0.154-0.91,0.191-1.453,0.087c-1.562-0.302-2.262-1.562-1.907-3.402
		c0.252-1.308,0.917-2.076,1.668-2.401c0.427-0.183,1.013-0.242,1.489-0.15c0.376,0.072,0.77,0.239,1.048,0.466
		c0.189,0.151,0.274,0.249,0.478,0.505l-0.907,0.837c-0.247-0.334-0.536-0.563-0.813-0.617c-0.665-0.128-1.075,0.391-1.331,1.722
		c-0.143,0.741-0.128,1.205,0.013,1.484c0.117,0.229,0.348,0.399,0.603,0.448c0.344,0.066,0.681-0.016,1.11-0.268l0.104-0.061
		l0.502,1.028C72.59,44.729,72.476,44.786,72.253,44.871z"/>
	<path fill="#FFFFFF" d="M79.608,45.827c-0.526,0.403-1.149,0.593-2.024,0.425c-1.54-0.297-2.328-1.643-1.984-3.426
		c0.344-1.785,1.592-2.774,3.121-2.48c0.809,0.156,1.387,0.555,1.764,1.225c0.353,0.62,0.431,1.279,0.254,2.199
		C80.552,44.744,80.202,45.366,79.608,45.827z M79.117,41.87c-0.108-0.215-0.319-0.37-0.585-0.422
		c-0.354-0.068-0.686,0.097-0.875,0.429c-0.157,0.279-0.289,0.668-0.398,1.232c-0.126,0.655-0.153,1.155-0.087,1.467
		c0.074,0.336,0.377,0.555,0.665,0.611c0.642,0.123,1.03-0.4,1.288-1.74C79.271,42.684,79.268,42.165,79.117,41.87z"/>
	<path fill="#FFFFFF" d="M85.58,42.863l-0.892,4.631l-1.451-0.279l0.892-4.631l-0.51-0.098l0.201-1.043l0.543,0.105
		c0.047-0.244,0.045-0.532,0.094-0.786c0.216-1.118,1.004-1.634,2.168-1.41c0.487,0.094,0.866,0.271,1.272,0.613l-0.654,0.828
		c-0.291-0.215-0.396-0.271-0.572-0.305c-0.378-0.073-0.666,0.112-0.745,0.524l-0.156,0.808l1.873,0.361
		c0.047-0.243,0.044-0.532,0.093-0.786c0.216-1.118,1.005-1.633,2.168-1.41c0.488,0.094,0.952,0.311,1.179,0.502l-0.654,0.828
		c-0.131-0.092-0.358-0.172-0.479-0.195c-0.377-0.073-0.666,0.113-0.745,0.524L89.05,42.45l1.363,0.264l-0.578,0.969l-0.941-0.182
		l-0.892,4.631l-1.452-0.28l0.892-4.63L85.58,42.863z"/>
	<path fill="#FFFFFF" d="M93.389,46.712l-0.009,0.044c-0.168,0.875,0.169,1.457,0.934,1.605c0.51,0.097,1.021,0.002,1.549-0.289
		l0.405,0.997c-0.755,0.406-1.493,0.528-2.29,0.375c-1.628-0.314-2.459-1.669-2.115-3.452c0.196-1.019,0.537-1.656,1.142-2.114
		c0.565-0.43,1.177-0.564,1.931-0.419c0.653,0.126,1.23,0.467,1.524,0.914c0.42,0.632,0.505,1.439,0.276,2.627l-0.066,0.344
		L93.389,46.712z M95.352,45.895c0.081-0.42,0.08-0.652-0.013-0.889c-0.101-0.248-0.291-0.4-0.59-0.459
		c-0.565-0.107-0.972,0.274-1.124,1.061l-0.004,0.022l1.718,0.331L95.352,45.895z"/>
	<path fill="#FFFFFF" d="M100.881,48.154l-0.01,0.045c-0.168,0.874,0.168,1.456,0.934,1.604c0.51,0.099,1.021,0.002,1.55-0.289
		l0.404,0.999c-0.756,0.405-1.492,0.526-2.29,0.373c-1.629-0.312-2.459-1.669-2.116-3.452c0.196-1.019,0.537-1.655,1.144-2.113
		c0.565-0.431,1.178-0.565,1.931-0.419c0.654,0.125,1.23,0.467,1.525,0.914c0.417,0.631,0.503,1.439,0.274,2.625l-0.066,0.346
		L100.881,48.154z M102.843,47.337c0.081-0.421,0.08-0.651-0.013-0.888c-0.102-0.248-0.291-0.4-0.59-0.459
		c-0.564-0.107-0.973,0.273-1.124,1.061l-0.004,0.021l1.718,0.33L102.843,47.337z"/>
	<path fill="#FFFFFF" d="M107.36,52.047c-0.542-0.104-0.89-0.633-0.784-1.176c0.102-0.531,0.618-0.881,1.148-0.778
		c0.543,0.104,0.902,0.622,0.801,1.153C108.421,51.79,107.892,52.148,107.36,52.047z"/>
	<path fill="#FFFFFF" d="M115.15,53.133c-0.444,0.154-0.911,0.191-1.454,0.087c-1.562-0.301-2.262-1.562-1.907-3.4
		c0.252-1.31,0.918-2.076,1.669-2.403c0.426-0.182,1.013-0.242,1.488-0.15c0.376,0.074,0.769,0.24,1.048,0.467
		c0.188,0.15,0.273,0.248,0.478,0.506l-0.908,0.836c-0.246-0.334-0.536-0.563-0.812-0.617c-0.664-0.128-1.075,0.392-1.332,1.723
		c-0.142,0.74-0.129,1.204,0.013,1.484c0.118,0.229,0.349,0.399,0.604,0.447c0.345,0.067,0.682-0.016,1.11-0.268l0.104-0.06
		l0.502,1.027C115.487,52.989,115.372,53.048,115.15,53.133z"/>
	<path fill="#FFFFFF" d="M122.504,54.089c-0.525,0.403-1.148,0.594-2.021,0.425c-1.541-0.296-2.329-1.642-1.985-3.425
		c0.344-1.786,1.59-2.775,3.122-2.48c0.808,0.156,1.387,0.556,1.764,1.226c0.35,0.619,0.431,1.277,0.253,2.196
		C123.447,53.007,123.099,53.629,122.504,54.089z M122.012,50.133c-0.105-0.216-0.318-0.371-0.583-0.423
		c-0.356-0.068-0.687,0.098-0.876,0.43c-0.157,0.278-0.29,0.666-0.398,1.231c-0.126,0.655-0.154,1.155-0.087,1.467
		c0.072,0.336,0.377,0.556,0.664,0.61c0.644,0.125,1.031-0.398,1.289-1.738C122.167,50.945,122.164,50.427,122.012,50.133z"/>
	<path fill="#FFFFFF" d="M131.929,56.593l0.721-3.744c0.13-0.677,0.078-0.823-0.31-0.898c-0.276-0.053-0.7,0.061-1.078,0.286
		l-0.785,4.077l-1.406-0.271l0.71-3.689c0.137-0.709,0.069-0.894-0.341-0.973c-0.276-0.053-0.683,0.018-1.058,0.245l-0.796,4.131
		l-1.453-0.279l0.763-3.955c0.157-0.819,0.17-1.186,0.069-1.493l1.411-0.106c0.069,0.174,0.089,0.316,0.087,0.615
		c0.46-0.302,0.977-0.411,1.497-0.31c0.466,0.09,0.825,0.319,1.062,0.687c0.063,0.094,0.121,0.208,0.169,0.319
		c0.623-0.43,1.128-0.552,1.749-0.432c0.442,0.085,0.839,0.298,1.05,0.57c0.27,0.338,0.306,0.691,0.156,1.466l-0.777,4.031
		L131.929,56.593z"/>
	<path fill="#FFFFFF" d="M137.522,57.856c-0.542-0.105-0.887-0.633-0.783-1.177c0.103-0.53,0.618-0.88,1.15-0.777
		c0.542,0.104,0.901,0.623,0.8,1.153C138.585,57.6,138.058,57.958,137.522,57.856z"/>
	<path fill="#FFFFFF" d="M145.396,59.348c-0.163-0.169-0.282-0.388-0.338-0.639c-0.433,0.283-1.002,0.37-1.6,0.254
		c-0.797-0.153-1.411-0.662-1.494-1.24c-0.042-0.272-0.018-0.578,0.095-1.154l0.699-3.635l1.517,0.005l-0.702,3.645
		c-0.099,0.511-0.106,0.785-0.058,0.955s0.246,0.322,0.471,0.366c0.365,0.071,0.859-0.11,1.022-0.365l0.77-3.989l1.477-0.025
		l-0.835,4.332c-0.074,0.377-0.026,0.788,0.144,1.097L145.396,59.348z"/>
	<path fill="#FFFFFF" d="M153.36,61.021c-0.317-0.211-0.577-0.526-0.666-0.84c-0.132,0.088-0.276,0.175-0.4,0.232
		c-0.315,0.146-0.737,0.18-1.201,0.09c-1.263-0.242-1.826-1.02-1.608-2.147c0.256-1.331,1.294-1.773,3.102-1.426
		c0.109,0.021,0.209,0.041,0.33,0.074l0.045-0.232c0.121-0.63,0.04-0.865-0.503-0.97c-0.477-0.092-1.073,0.033-1.765,0.326
		l-0.426-1.186c0.334-0.13,0.578-0.198,1.009-0.287c0.6-0.127,1.095-0.135,1.615-0.033c0.953,0.183,1.538,0.663,1.638,1.339
		c0.033,0.245,0.033,0.43-0.096,1.036l-0.4,1.9c-0.13,0.619-0.137,0.893,0.287,1.366L153.36,61.021z M152.631,58.007
		c-1.031-0.197-1.422-0.079-1.553,0.597c-0.085,0.444,0.135,0.796,0.513,0.869c0.275,0.053,0.581-0.037,0.848-0.238l0.258-1.214
		L152.631,58.007z"/>
</g>
</svg>
